# Exported from Wings 3D 1.5.4
mtllib view2.mtl
o Cube1
#8 vertices, 6 faces
v 0.35591866 -2.42031761 -2.83302462
v -0.26097457 -2.42031761 -2.83315382
v 1.35554886 -2.42066668 -4.83281527
v -1.25976702 -2.42066668 -4.83336302
v 9.1696204e-2 2.42091456 6.8116363e-3
v 2.0583081e-3 2.42091456 6.7928626e-3
v 1.35554894 -0.42066671 -4.83316433
v -1.25976695 -0.42066671 -4.83371208
vn 0.41718175 -0.72628952 0.54631761
vn -0.41741055 -0.72628952 0.54614281
vn 0.58580985 -0.70051238 -0.40756500
vn -0.58563907 -0.70051238 -0.40781035
vn 0.77760790 0.20560087 0.59418368
vn -0.77785672 0.20560087 0.59385790
vn 0.55960959 0.45252195 -0.69430613
vn -0.55931871 0.45252195 -0.69454048
g Cube1_default
usemtl default
s 1
f 1//1 5//5 6//6 2//2
f 2//2 4//4 3//3 1//1
f 2//2 6//6 8//8 4//4
f 3//3 7//7 5//5 1//1
f 4//4 8//8 7//7 3//3
f 5//5 7//7 8//8 6//6
